<?xml version="1.0" standalone="no"?>
<!DOCTYPE svg PUBLIC "-//W3C//DTD SVG 20010904//EN"
 "http://www.w3.org/TR/2001/REC-SVG-20010904/DTD/svg10.dtd">
<svg version="1.0" xmlns="http://www.w3.org/2000/svg"
 width="2000.000000pt" height="2000.000000pt" viewBox="0 0 2000.000000 2000.000000"
 preserveAspectRatio="xMidYMid meet">
<metadata>
Created by potrace 1.11, written by Peter Selinger 2001-2013
</metadata>
<g transform="translate(0.000000,2000.000000) scale(0.100000,-0.100000)"
fill="#000000" stroke="none">
<path d="M10250 19434 c0 -16 199 -233 410 -447 l235 -238 150 25 c546 92
1008 129 1612 130 233 1 423 2 423 3 0 5 -386 128 -540 172 -686 196 -1441
321 -2085 346 -82 3 -162 8 -177 10 -16 3 -28 2 -28 -1z"/>
<path d="M9270 19413 c-19 -1 -109 -10 -200 -19 -875 -82 -1746 -295 -2590
-632 -340 -136 -845 -380 -1142 -552 l-128 -74 27 -45 c224 -389 685 -1058
979 -1423 l62 -77 159 128 c1023 819 2206 1430 3482 1800 96 28 176 52 178 54
1 2 -39 48 -89 103 -182 198 -469 543 -578 697 -36 51 -41 52 -160 40z"/>
<path d="M14436 18209 c375 -386 645 -697 919 -1064 148 -198 334 -462 388
-553 18 -28 41 -54 52 -57 95 -23 975 -57 975 -38 0 16 -364 367 -550 531
-564 496 -1153 904 -1815 1256 l-90 48 121 -123z"/>
<path d="M12425 18193 c-153 -7 -378 -25 -564 -45 l-204 -22 34 -28 c52 -43
397 -275 544 -365 127 -78 313 -183 488 -277 l87 -47 9 23 c5 13 75 176 156
363 81 187 154 355 161 373 l14 32 -332 -2 c-183 -1 -360 -3 -393 -5z"/>
<path d="M10550 17914 c-1320 -336 -2531 -939 -3603 -1792 -86 -69 -156 -129
-155 -133 7 -20 365 -393 543 -567 988 -965 2086 -1748 3326 -2372 l217 -109
528 1222 c290 672 660 1528 822 1902 162 374 296 685 299 692 3 7 -28 29 -78
53 -513 258 -1161 691 -1625 1086 -42 35 -81 64 -87 63 -7 0 -91 -21 -187 -45z"/>
<path d="M13682 17511 c-90 -208 -165 -387 -168 -398 -5 -17 9 -25 103 -61
283 -108 594 -208 881 -283 191 -50 365 -90 370 -84 4 4 -119 173 -248 340
-108 140 -305 376 -433 519 -105 117 -328 346 -337 346 -3 0 -78 -170 -168
-379z"/>
<path d="M4480 17657 c-435 -316 -749 -585 -1130 -967 -723 -723 -1290 -1510
-1750 -2429 l-90 -180 142 -188 c347 -462 790 -995 1158 -1393 261 -284 384
-410 390 -403 4 4 24 58 45 118 309 892 786 1801 1350 2576 310 425 588 752
958 1126 201 203 218 223 206 240 -8 10 -80 104 -160 208 -286 372 -622 863
-839 1228 -58 97 -109 176 -115 177 -5 0 -80 -51 -165 -113z"/>
<path d="M13173 16333 c-54 -126 -906 -2097 -1330 -3078 -141 -324 -258 -597
-260 -606 -4 -14 31 -31 174 -87 1099 -433 2264 -719 3428 -841 425 -45 875
-71 1218 -71 l207 0 -5 68 c-3 37 -12 153 -20 259 -99 1267 -481 2566 -1088
3696 -81 151 -117 209 -132 212 -11 2 -99 16 -195 30 -557 83 -1228 262 -1784
474 -87 34 -160 61 -161 61 -1 0 -25 -53 -52 -117z"/>
<path d="M17215 15829 c-44 -5 -288 -11 -542 -15 -255 -4 -463 -8 -463 -9 0
-1 58 -121 129 -266 486 -993 801 -2043 941 -3134 24 -194 60 -569 60 -639 0
-99 -1 -98 104 -91 215 15 548 48 774 76 300 37 951 145 966 160 5 5 -44 222
-93 417 -306 1208 -880 2388 -1648 3390 -82 105 -98 122 -121 120 -15 -1 -63
-5 -107 -9z"/>
<path d="M6094 15347 c-908 -921 -1615 -2024 -2087 -3253 -53 -139 -207 -582
-207 -597 0 -6 283 -264 470 -428 1258 -1104 2626 -2022 4105 -2753 348 -172
413 -202 419 -195 2 2 159 364 349 804 190 440 595 1379 901 2087 306 708 556
1291 555 1295 0 4 -114 64 -252 133 -1471 730 -2854 1778 -3998 3027 l-66 72
-189 -192z"/>
<path d="M1195 13333 c-151 -432 -238 -718 -319 -1054 -297 -1221 -344 -2460
-141 -3704 56 -346 55 -343 113 -395 540 -492 934 -828 1432 -1220 179 -141
707 -540 714 -540 2 0 -12 62 -31 138 -133 544 -222 1137 -265 1767 -15 232
-15 949 1 1175 42 620 120 1145 248 1692 l36 157 -215 223 c-535 556 -952
1037 -1401 1616 -82 105 -150 192 -152 192 -2 0 -11 -21 -20 -47z"/>
<path d="M11286 11967 c-7 -17 -228 -529 -491 -1137 -1154 -2670 -1306 -3023
-1302 -3026 2 -2 109 -46 238 -98 1715 -690 3496 -1120 5364 -1296 l210 -20
18 21 c62 75 387 717 525 1039 463 1079 723 2237 765 3416 l3 91 -315 6 c-405
9 -840 34 -1136 67 -1396 154 -2524 435 -3812 949 l-53 21 -14 -33z"/>
<path d="M19170 11214 c-176 -36 -563 -100 -775 -128 -349 -47 -852 -96 -976
-96 -31 0 -51 -5 -54 -12 -2 -7 -8 -125 -15 -263 -64 -1463 -427 -2837 -1096
-4144 -63 -123 -113 -226 -111 -227 11 -11 902 -15 1202 -5 461 15 1052 52
1275 79 l55 7 48 120 c302 752 518 1618 606 2435 75 683 73 1415 -4 2085 -18
149 -23 175 -33 174 -4 -1 -59 -12 -122 -25z"/>
<path d="M3600 10743 c0 -5 -13 -73 -30 -154 -278 -1374 -247 -2803 90 -4169
40 -161 126 -468 152 -542 12 -33 34 -51 205 -163 902 -586 1877 -1132 2836
-1584 97 -47 179 -82 181 -80 7 7 1476 3410 1476 3419 0 5 -10 12 -22 15 -43
13 -703 344 -926 465 -1392 751 -2639 1626 -3804 2668 -81 73 -150 132 -153
132 -3 0 -5 -3 -5 -7z"/>
<path d="M9191 7118 c-10 -24 -262 -608 -561 -1298 -298 -690 -622 -1441 -721
-1668 l-178 -414 57 -25 c167 -74 802 -324 1087 -428 678 -247 1416 -479 2067
-651 93 -24 175 -44 184 -44 23 0 289 130 509 250 631 341 1209 744 1760 1226
220 192 670 642 860 859 259 298 634 781 617 796 -4 3 -83 14 -177 23 -1746
179 -3652 662 -5297 1341 -99 41 -183 75 -185 75 -2 0 -12 -19 -22 -42z"/>
<path d="M1154 6947 c4 -16 36 -106 73 -200 412 -1073 969 -1996 1734 -2872
147 -169 638 -659 804 -805 583 -508 1163 -909 1830 -1264 l90 -48 -70 73
c-238 249 -303 318 -415 445 -752 846 -1359 1826 -1784 2875 l-67 166 -211
144 c-415 283 -890 629 -1269 925 -208 162 -563 449 -653 528 -64 56 -69 59
-62 33z"/>
<path d="M18040 5675 c-528 -38 -1221 -52 -1770 -36 -212 6 -421 14 -465 17
l-80 5 -119 -177 c-821 -1216 -1994 -2294 -3308 -3040 -86 -49 -154 -92 -150
-95 9 -8 511 -107 802 -158 498 -88 1124 -176 1641 -231 l205 -22 120 73 c162
99 452 292 609 407 1123 819 2044 1867 2709 3083 53 97 96 179 96 183 0 8 -80
6 -290 -9z"/>
<path d="M4250 4735 c0 -12 216 -443 285 -570 410 -747 931 -1459 1488 -2032
l128 -132 16 37 c8 20 145 338 305 706 159 368 285 672 281 676 -4 4 -60 31
-123 60 -63 29 -158 73 -210 98 -120 56 -811 401 -893 446 -34 19 -123 66
-197 106 -302 162 -963 539 -1043 595 -22 15 -37 19 -37 10z"/>
<path d="M7445 3078 c-7 -18 -130 -303 -273 -633 -143 -330 -274 -633 -291
-674 l-31 -74 407 6 c651 9 1117 58 1745 182 342 68 1113 276 1091 295 -4 4
-28 12 -53 19 -595 163 -1681 543 -2393 837 -98 41 -180 74 -183 74 -3 0 -11
-15 -19 -32z"/>
<path d="M11120 1874 c-98 -43 -398 -154 -580 -214 -848 -282 -1629 -435
-2555 -502 -95 -7 -366 -12 -617 -13 -247 0 -448 -1 -448 -2 0 -4 374 -122
515 -162 1208 -344 2464 -443 3700 -291 808 99 1600 303 2355 605 243 97 278
113 260 119 -8 2 -87 14 -175 26 -666 87 -1555 253 -2277 425 -125 29 -131 29
-178 9z"/>
</g>
</svg>
